<?xml version="1.0" encoding="UTF-8"?><svg id="Layer_1" xmlns="http://www.w3.org/2000/svg" viewBox="0 0 109.71 42.1"><defs><style>.cls-1{stroke-width:0px;}.cls-1,.cls-2{fill:#ef250a;}.cls-2{stroke:#ef250a;}.cls-2,.cls-3{stroke-miterlimit:10;}.cls-3{fill:#fff;stroke:#000;}</style></defs><path class="cls-3" d="m56.79,33.91S80.68-5.91,89.3,1.39c8.63,7.3-32.52,32.52-32.52,32.52Z"/><path class="cls-3" d="m52.93,33.91S29.04-5.91,20.41,1.39c-8.63,7.3,32.52,32.52,32.52,32.52Z"/><path class="cls-3" d="m56.79,35.26s44.39-18.58,51.79-6.64c7.4,11.95-51.79,6.64-51.79,6.64Z"/><path class="cls-3" d="m52.93,35.26S8.54,16.68,1.14,28.63s51.79,6.64,51.79,6.64Z"/><path class="cls-1" d="m70.58,11.41c-16.65-6.68-14.91,30.57-14.91,30.57-.02.02-.02.03-.04.04,0,0,0,0,0,0,1.06-1.27,4.35-5.26,5.69-6.93,5.87-7.33,13.91-21.82,9.25-23.69Z"/><path class="cls-2" d="m55.22,40.88s1.74-36.62-11.81-32.14c-13.55,4.48,11.81,32.14,11.81,32.14Z"/></svg>