<svg xmlns="http://www.w3.org/2000/svg" width="30.265" height="31.499" viewBox="0 0 30.265 31.499">
  <path id="Icon_awesome-linkedin-in" data-name="Icon awesome-linkedin-in" d="M6.774,31.5H.5V10.47H6.774ZM3.634,7.6A3.743,3.743,0,0,1,0,3.783,3.71,3.71,0,0,1,3.634,0,3.71,3.71,0,0,1,7.268,3.783,3.743,3.743,0,0,1,3.634,7.6ZM30.258,31.5H24V21.263c0-2.44-.047-5.569-3.262-5.569-3.262,0-3.762,2.651-3.762,5.393V31.5H10.7V10.47h6.018v2.869h.088a6.551,6.551,0,0,1,5.937-3.4c6.35,0,7.518,4.352,7.518,10.005V31.5Z" transform="translate(0 -0.001)"/>
</svg>
