<svg xmlns="http://www.w3.org/2000/svg" width="33" height="33" viewBox="0 0 33 33">
  <g id="Group_4" data-name="Group 4" transform="translate(0)">
    <rect id="Rectangle_57" data-name="Rectangle 57" width="33" height="33" rx="11" transform="translate(0 0)" fill="#fff"/>
    <path id="Icon_awesome-instagram" data-name="Icon awesome-instagram" d="M12.075,8.121a6.192,6.192,0,1,0,6.192,6.192A6.182,6.182,0,0,0,12.075,8.121Zm0,10.217A4.025,4.025,0,1,1,16.1,14.312,4.033,4.033,0,0,1,12.075,18.337Zm7.889-10.47a1.444,1.444,0,1,1-1.444-1.444A1.441,1.441,0,0,1,19.964,7.867Zm4.1,1.466a7.147,7.147,0,0,0-1.951-5.06,7.194,7.194,0,0,0-5.06-1.951c-1.994-.113-7.97-.113-9.964,0A7.183,7.183,0,0,0,2.03,4.268,7.17,7.17,0,0,0,.08,9.328c-.113,1.994-.113,7.97,0,9.964a7.147,7.147,0,0,0,1.951,5.06A7.2,7.2,0,0,0,7.09,26.3c1.994.113,7.97.113,9.964,0a7.147,7.147,0,0,0,5.06-1.951,7.194,7.194,0,0,0,1.951-5.06C24.177,17.3,24.177,11.327,24.064,9.333Zm-2.576,12.1a4.075,4.075,0,0,1-2.3,2.3c-1.59.63-5.362.485-7.118.485s-5.534.14-7.118-.485a4.075,4.075,0,0,1-2.3-2.3c-.63-1.59-.485-5.362-.485-7.118s-.14-5.534.485-7.118a4.075,4.075,0,0,1,2.3-2.3c1.59-.63,5.362-.485,7.118-.485s5.534-.14,7.118.485a4.075,4.075,0,0,1,2.3,2.3c.63,1.59.485,5.362.485,7.118S22.119,19.846,21.489,21.431Z" transform="translate(4.635 2.32)"/>
  </g>
</svg>
