<svg xmlns="http://www.w3.org/2000/svg" width="47.844" height="76.627" viewBox="0 0 47.844 76.627">
  <path id="Path_150" data-name="Path 150" d="M0,55.66s9.336,1.675,11.976,4.251a7.659,7.659,0,0,1,3.413,6.247l.837,28.719a9.884,9.884,0,0,1-.707,3.413,8.33,8.33,0,0,1-1.8,2.77l15-.064s-.536-.151-1.611-1.933-.643-3.8-.643-7.276L26.4,83.032l7.34-6.76S30.719,95.2,40.826,119.737c0,0-2.834-32.26,3.929-42.112,0,0-6.827-3.735-7.407-5.343,0,0,9.273-13.008,10.5-29.171,0,0-3.025,14.1-12.492,20.991l-.258,4.442-8.757,9.4V62.554s.127-6.311-7.662-6.375Z" transform="translate(0 -43.11)"/>
</svg>
