<svg xmlns="http://www.w3.org/2000/svg" width="239.232" height="204.227" viewBox="0 0 239.232 204.227">
  <g id="Layer_1-2" transform="translate(0 -0.002)">
    <path id="Path_150" data-name="Path 150" d="M0,67.113s17.857,3.2,22.906,8.13c0,0,5.913,3.2,6.529,11.949l1.6,54.928a18.9,18.9,0,0,1-1.352,6.529s-1.48,3.7-3.447,5.3l28.7-.122s-1.025-.288-3.081-3.7-1.23-7.266-1.23-13.916L50.5,119.464l14.038-12.93s-5.786,36.207,13.545,83.132c0,0-5.42-61.7,7.515-80.544,0,0-13.057-7.144-14.166-10.22,0,0,17.735-24.879,20.074-55.793,0,0-5.786,26.974-23.892,40.147l-.493,8.5L50.373,109.732V80.3s.244-12.071-14.653-12.193Z" transform="translate(0 -19.217)"/>
    <path id="Path_151" data-name="Path 151" d="M186.362,126.4s1.674-24.906,2.134-28.442S201.941,76.5,201.625,66.81c0,0-3.735,15.5-12.819,18.3,0,0-18.683,3.126-24.807,10.281,0,0,5.32-12.675,6.473-17.264s-.959,6.063-10.43,17.973c0,0-4.328,5.974-2.976,18.455,0,0,1.38-7.133,4.678-10.885s10.325-9.034,15.828-9.566l-1.147,13.168s-34.977,14.033-28.431,61.191c0,0,3.309-32.771,29.107-30.687a12.432,12.432,0,0,1,8.18,5.814s11.777-8.867,12.026-44.8c0,0-2.056,25.25-10.94,27.617Zm-11.456,2.682s-12.248.449-19.475,11.289c0,0,6.268-18.555,20.318-23.837C175.538,120.536,174.906,129.082,174.906,129.082Z" transform="translate(-65.609 -29.782)"/>
    <path id="Path_152" data-name="Path 152" d="M221.6,18.251c0-.92,21.609-40.6,47.69,0,0,0-11.506-3.674-17.774,39.128l19.309,6.246s-20.456-.183-21.226,1.1c-2.943,22.6-4.86,38.39-4.86,87.8,0,0-2.173-86.153-5.37-87.987-2.045-.549-21.481,0-21.481,0l20.456-6.429S234.638,19.171,221.6,18.257Z" transform="translate(-97.132 0)"/>
    <path id="Path_153" data-name="Path 153" d="M188.329,361.038s-.122-3.713-.039-9.278C188.19,355.434,188.179,358.732,188.329,361.038Z" transform="translate(-83.904 -156.808)"/>
    <path id="Path_154" data-name="Path 154" d="M323.81,147.034s-3.625-18.594-21.753-14.5c-8.5,2.106-25.882,12.27-36.135,7.438,0,0,4.251-3.968,12-4.461,0,0-4.75-2.355-12.752,1.241-1.873,0-7.5-.249-6.124-6.944,0,0,9.128-9.544,27.633-6.324,0,0,5.625,1.984-1.125,6.446-.748.992,3.874-1.363,4.251-3.1s-.249-8.058,2.5-11.655,7.377-5.332,8.5-6.2,1.375-2.6,1.624-5.082c0,0-2.749,7.438-6.124,5.2s-8.252-10.164-9.128-12.148c0,0-11.877,2.355-17.5,0,0,0-9.754,5.2-11.627,6.695S249.3,121.618,246.3,123.852c0,0-2.378,1.862-7,1.485,0,0,7.127,3.226,6.878,8.308,0,0-.377,8.923,4.75,12.148,0,0,8.751,6.817,31.258,2.355,0,0,15.756-5.453,23.255-3.841,6.628,1.363,19.5,30.742-12.376,34.711-20.883.249-37.509.743-51.387-.87,0,0-22.13-2.727-36.257,4.589-1.873,1.735-13.756,6.695-14.881,28.636,0,0-.366,4.55-.748,10.558.97-11.162,3.043-23.127,7.377-29.4,0,0,5.254-12.769,25.632-13.019a162.884,162.884,0,0,1,38.136,2.233s34.256,4.212,40.136,2.477,23.255-2.849,22.756-37.188ZM281.3,111.082l-21.5,4.96c9-13.512,15.629-9.544,21.5-4.96Z" transform="translate(-84.605 -43.218)"/>
    <path id="Path_155" data-name="Path 155" d="M189.143,322.46c-.521,5.974-.726,11.716-.793,16.238C188.494,333.461,188.827,327.459,189.143,322.46Z" transform="translate(-83.964 -143.747)"/>
    <text id="DESIGN" transform="translate(146.285 168.474)" font-size="16" font-family="Lapture-Bold, Lapture" font-weight="700"><tspan x="0" y="0" letter-spacing="-0.02em">D</tspan><tspan y="0">E</tspan><tspan y="0" letter-spacing="-0.02em">S</tspan><tspan y="0" letter-spacing="-0.03em">IG</tspan><tspan y="0">N</tspan></text>
  </g>
</svg>
