<svg id="Layer_1-2" xmlns="http://www.w3.org/2000/svg" width="539.498" height="460.558" viewBox="0 0 539.498 460.558">
  <path id="Path_150" data-name="Path 150" d="M0,97.24s40.269,7.224,51.655,18.335c0,0,13.336,7.224,14.723,26.946l3.612,123.87a42.632,42.632,0,0,1-3.05,14.723s-3.337,8.336-7.774,11.948l64.716-.275s-2.312-.65-6.949-8.336-2.775-16.385-2.775-31.383l-.275-37.77,31.658-29.158s-13.048,81.651,30.546,187.474c0,0-12.223-139.143,16.948-181.637,0,0-29.446-16.11-31.946-23.047,0,0,39.994-56.1,45.269-125.82,0,0-13.048,60.829-53.88,90.537l-1.112,19.16L113.6,193.351V126.973s.55-27.221-33.045-27.5Z" transform="translate(0 10.767)" fill="#fff"/>
  <path id="Path_151" data-name="Path 151" d="M235.543,201.191s3.774-56.167,4.812-64.141,30.321-48.393,29.608-70.24c0,0-8.424,34.945-28.908,41.269,0,0-42.132,7.049-55.942,23.184,0,0,12-28.584,14.6-38.932S197.549,106,176.189,132.863c0,0-9.761,13.473-6.712,41.619,0,0,3.112-16.085,10.549-24.547s23.284-20.372,35.7-21.572l-2.587,29.7s-78.876,31.646-64.116,137.993c0,0,7.461-73.9,65.641-69.2,0,0,11.036,1.4,18.447,13.111,0,0,26.559-20,27.121-101.023,0,0-4.637,56.942-24.672,62.279Zm-25.834,6.049s-27.621,1.012-43.919,25.459c0,0,14.136-41.844,45.819-53.755C211.134,187.968,209.709,207.24,209.709,207.24Z" transform="translate(36.769 16.688)" fill="#fff"/>
  <path id="Path_152" data-name="Path 152" d="M226.264,41.156c0-2.075,48.731-91.55,107.547,0,0,0-25.946-8.286-40.082,88.238l43.544,14.086s-46.131-.412-47.868,2.487c-6.637,50.955-10.961,86.575-10.961,198.01,0,0-4.9-194.285-12.111-198.422-4.612-1.237-48.443,0-48.443,0l46.131-14.5s-8.361-87.825-37.77-89.887Z" transform="translate(54.434 -0.002)" fill="#fff"/>
  <path id="Path_153" data-name="Path 153" d="M188.471,372.682s-.275-8.374-.087-20.922C188.159,360.046,188.134,367.483,188.471,372.682Z" transform="translate(47.021 87.876)" fill="#fff"/>
  <path id="Path_154" data-name="Path 154" d="M492.023,209.9s-8.174-41.932-49.056-32.708c-19.172,4.749-58.367,27.671-81.489,16.773,0,0,9.586-8.949,27.071-10.061,0,0-10.711-5.312-28.758,2.8-4.224,0-16.923-.562-13.811-15.66,0,0,20.585-21.522,62.316-14.261,0,0,12.686,4.474-2.537,14.535-1.687,2.237,8.736-3.075,9.586-6.987s-.562-18.172,5.637-26.284,16.635-12.023,19.172-13.973,3.1-5.874,3.662-11.461c0,0-6.2,16.773-13.811,11.736s-18.61-22.922-20.585-27.4c0,0-26.784,5.312-39.469,0,0,0-22,11.736-26.221,15.1S324,152.58,317.222,157.617c0,0-5.362,4.2-15.785,3.35,0,0,16.073,7.274,15.51,18.735,0,0-.85,20.122,10.711,27.4,0,0,19.735,15.373,70.49,5.312,0,0,35.533-12.3,52.443-8.661,14.948,3.075,43.981,69.328-27.909,78.277-47.093.562-84.588,1.675-115.884-1.962,0,0-49.906-6.149-81.764,10.349-4.224,3.912-31.021,15.1-33.558,64.578,0,0-.825,10.261-1.687,23.809,2.187-25.171,6.862-52.155,16.635-66.3,0,0,11.848-28.8,57.8-29.358,0,0,37.495-3.35,86,5.037,0,0,77.252,9.5,90.512,5.587s52.443-6.424,51.318-83.863Zm-95.862-81.076-48.493,11.186c20.3-30.471,35.245-21.522,48.493-11.186Z" transform="translate(47.414 24.218)" fill="#fff"/>
  <path id="Path_155" data-name="Path 155" d="M190.137,322.46c-1.175,13.473-1.637,26.421-1.787,36.62C188.675,347.269,189.425,333.733,190.137,322.46Z" transform="translate(47.055 80.556)" fill="#fff"/>
  <text id="DESIGN" transform="translate(329.891 383.099)" fill="#fff" font-size="39" font-family="Lapture-Bold, Lapture" font-weight="700"><tspan x="0" y="0" letter-spacing="-0.02em">D</tspan><tspan y="0">E</tspan><tspan y="0" letter-spacing="-0.02em">S</tspan><tspan y="0" letter-spacing="-0.03em">IG</tspan><tspan y="0">N</tspan></text>
</svg>
