<svg xmlns="http://www.w3.org/2000/svg" xmlns:xlink="http://www.w3.org/1999/xlink" width="249.107" height="249.107" viewBox="0 0 249.107 249.107">
  <defs>
    <clipPath id="clip-path">
      <rect id="Rectangle_111" data-name="Rectangle 111" width="249.107" height="249.107" fill="none"/>
    </clipPath>
  </defs>
  <g id="Group_130" data-name="Group 130" clip-path="url(#clip-path)">
    <path id="Path_76" data-name="Path 76" d="M249.107,124.553A124.553,124.553,0,1,1,124.553,0,124.553,124.553,0,0,1,249.107,124.553" transform="translate(0 0)" fill="#1a1818"/>
    <path id="Path_77" data-name="Path 77" d="M86.505,21.947l1.28,144.208h8.238L94.846,21.947Z" transform="translate(121.196 30.748)" fill="#fff"/>
    <rect id="Rectangle_108" data-name="Rectangle 108" width="9.518" height="144.208" transform="translate(31.888 52.695)" fill="#fff"/>
    <path id="Path_78" data-name="Path 78" d="M22.8,84.8a4.759,4.759,0,1,1-4.759-4.785A4.771,4.771,0,0,1,22.8,84.8" transform="translate(18.607 112.102)" fill="#fff"/>
    <ellipse id="Ellipse_4" data-name="Ellipse 4" cx="4.759" cy="4.785" rx="4.759" ry="4.785" transform="translate(31.888 192.117)" fill="none" stroke="#1a1818" stroke-miterlimit="10" stroke-width="1"/>
    <path id="Path_79" data-name="Path 79" d="M22.8,24.128c0,2.065-2.13,3.738-4.759,3.738s-4.759-1.674-4.759-3.738,2.13-3.738,4.759-3.738S22.8,22.064,22.8,24.128" transform="translate(18.607 28.567)" fill="#fff"/>
    <ellipse id="Ellipse_5" data-name="Ellipse 5" cx="4.759" cy="3.738" rx="4.759" ry="3.738" transform="translate(31.888 48.956)" fill="none" stroke="#1a1818" stroke-miterlimit="10" stroke-width="1"/>
    <line id="Line_10" data-name="Line 10" y2="144.208" transform="translate(31.887 52.694)" fill="#fff"/>
    <line id="Line_11" data-name="Line 11" y2="144.208" transform="translate(31.887 52.694)" fill="none" stroke="#1a1818" stroke-miterlimit="10" stroke-width="1"/>
    <line id="Line_12" data-name="Line 12" y2="144.208" transform="translate(41.406 52.694)" fill="#fff"/>
    <line id="Line_13" data-name="Line 13" y2="144.208" transform="translate(41.406 52.694)" fill="none" stroke="#1a1818" stroke-miterlimit="10" stroke-width="1"/>
    <path id="Path_80" data-name="Path 80" d="M96.023,84.8a4.759,4.759,0,1,1-4.759-4.785A4.771,4.771,0,0,1,96.023,84.8" transform="translate(121.196 112.102)" fill="#fff"/>
    <ellipse id="Ellipse_6" data-name="Ellipse 6" cx="4.759" cy="4.785" rx="4.759" ry="4.785" transform="translate(207.702 192.117)" fill="none" stroke="#1a1818" stroke-miterlimit="10" stroke-width="1"/>
    <path id="Path_81" data-name="Path 81" d="M96.023,24.128c0,2.065-2.13,3.738-4.759,3.738S86.5,26.193,86.5,24.128s2.13-3.738,4.759-3.738,4.759,1.674,4.759,3.738" transform="translate(121.196 28.567)" fill="#fff"/>
    <ellipse id="Ellipse_7" data-name="Ellipse 7" cx="4.759" cy="3.738" rx="4.759" ry="3.738" transform="translate(207.702 48.956)" fill="none" stroke="#1a1818" stroke-miterlimit="10" stroke-width="1"/>
    <line id="Line_14" data-name="Line 14" y2="144.208" transform="translate(207.701 52.694)" fill="#fff"/>
    <line id="Line_15" data-name="Line 15" y2="144.208" transform="translate(207.701 52.694)" fill="none" stroke="#1a1818" stroke-miterlimit="10" stroke-width="1"/>
    <line id="Line_16" data-name="Line 16" y2="144.208" transform="translate(217.22 52.694)" fill="#fff"/>
    <line id="Line_17" data-name="Line 17" y2="144.208" transform="translate(217.22 52.694)" fill="none" stroke="#1a1818" stroke-miterlimit="10" stroke-width="1"/>
    <rect id="Rectangle_109" data-name="Rectangle 109" width="166.295" height="23.797" transform="translate(41.406 95.326)" fill="#fff"/>
    <rect id="Rectangle_110" data-name="Rectangle 110" width="166.295" height="23.797" transform="translate(41.406 95.326)" fill="none" stroke="#1a1818" stroke-miterlimit="10" stroke-width="1"/>
    <path id="Path_82" data-name="Path 82" d="M17.245,34.746c3.028-1.263,18.879-7.513,36.015,0a45.238,45.238,0,0,1,19.717,17" transform="translate(24.161 43.583)" fill="#fff"/>
    <path id="Path_83" data-name="Path 83" d="M17.245,34.746c3.028-1.263,18.879-7.513,36.015,0a45.238,45.238,0,0,1,19.717,17" transform="translate(24.161 43.583)" fill="none" stroke="#1a1818" stroke-miterlimit="10" stroke-width="1"/>
    <path id="Path_84" data-name="Path 84" d="M59.73,106.106c2.367-5.422,5.969-7.4,11.451-12.166,10.473-9.112,9.585-12.569,18.608-21.828,13.4-13.756,31.062-22.238,33.278-19.681,1.174,1.357-2.9,4.771-6.8,13.239-6.843,14.85-1.69,20.31-7.157,33.994-1.6,4-7.1,17.777-19.679,23.259-9.453,4.12-14.26-.209-21.828,4.653-10.517,6.756-11.551,21.749-12.524,21.47-.838-.24,3.239-10.389,3.578-24.69.223-9.489-1.393-12.6,1.073-18.25" transform="translate(77.009 72.822)" fill="#fff"/>
    <path id="Path_85" data-name="Path 85" d="M70.456,80c-4.223,6.586-5.53,10.872-5.724,15.028-.238,5.037,1.056,11.962,3.935,12.524,2.807.55,6.094-5.15,7.873-8.228,4.516-7.83,4.022-12.26,7.513-23.259C87.5,65.21,90.531,61.5,89.422,60.679,87.511,59.272,77.268,69.38,70.456,80" transform="translate(90.653 84.829)" fill="#1a1818"/>
    <path id="Path_86" data-name="Path 86" d="M67.622,68.1c-2.339,8.6,3.388,17.52,5.1,17.1,2.492-.615.526-21.943-2.3-22.2-1.357-.122-2.682,4.641-2.807,5.1" transform="translate(93.965 88.254)" fill="#fff"/>
    <path id="Path_87" data-name="Path 87" d="M85.423,105.944c-2.367-5.419-5.969-7.393-11.451-12.164C63.5,84.669,64.387,81.211,55.364,71.953,41.962,58.2,24.3,49.715,22.086,52.272c-1.174,1.354,2.9,4.768,6.8,13.239,6.843,14.85,1.69,20.308,7.157,33.994,1.6,4,7.1,17.777,19.679,23.259,9.453,4.12,14.26-.211,21.828,4.653,10.517,6.756,11.551,21.746,12.524,21.47.838-.24-3.239-10.392-3.578-24.692-.223-9.489,1.393-12.6-1.073-18.25" transform="translate(30.655 72.599)" fill="#fff"/>
    <path id="Path_88" data-name="Path 88" d="M49.4,79.843c4.223,6.586,5.53,10.872,5.724,15.028.238,5.037-1.056,11.962-3.935,12.524-2.807.55-6.094-5.15-7.873-8.228-4.516-7.83-4.022-12.26-7.513-23.259-3.445-10.857-6.478-14.569-5.369-15.388,1.911-1.407,12.154,8.7,18.966,19.323" transform="translate(42.31 84.606)" fill="#1a1818"/>
    <path id="Path_89" data-name="Path 89" d="M41.639,67.938c2.339,8.6-3.388,17.52-5.1,17.1-2.492-.615-.526-21.943,2.3-22.2,1.357-.122,2.682,4.641,2.807,5.1" transform="translate(49.591 88.031)" fill="#fff"/>
  </g>
</svg>
