<svg xmlns="http://www.w3.org/2000/svg" xmlns:xlink="http://www.w3.org/1999/xlink" width="250" height="250" viewBox="0 0 250 250">
  <defs>
    <clipPath id="clip-path">
      <rect id="Rectangle_160" data-name="Rectangle 160" width="250" height="250" transform="translate(0 0)" fill="none" stroke="rgba(0,0,0,0)" stroke-width="1"/>
    </clipPath>
  </defs>
  <g id="para-invert" transform="translate(0 0)" clip-path="url(#clip-path)">
    <path id="Path_338" data-name="Path 338" d="M250.48,125.24A125.24,125.24,0,1,1,125.24,0,125.24,125.24,0,0,1,250.48,125.24" transform="translate(0 0)" fill="#fff" stroke="rgba(0,0,0,0)" stroke-width="1"/>
    <path id="Path_339" data-name="Path 339" d="M86.505,21.947l1.287,145h8.283l-1.183-145Z" transform="translate(122.341 31.038)" stroke="rgba(0,0,0,0)" stroke-width="1"/>
    <rect id="Rectangle_157" data-name="Rectangle 157" width="9.57" height="145.003" transform="translate(32.064 52.986)" stroke="rgba(0,0,0,0)" stroke-width="1"/>
    <path id="Path_340" data-name="Path 340" d="M22.851,84.826a4.785,4.785,0,1,1-4.785-4.812,4.8,4.8,0,0,1,4.785,4.812" transform="translate(18.783 113.161)" fill="#fff" stroke="rgba(0,0,0,0)" stroke-width="1"/>
    <ellipse id="Ellipse_8" data-name="Ellipse 8" cx="4.785" cy="4.812" rx="4.785" ry="4.812" transform="translate(32.064 193.176)" stroke="rgba(0,0,0,0)" stroke-miterlimit="10" stroke-width="1"/>
    <path id="Path_341" data-name="Path 341" d="M22.851,24.149c0,2.076-2.141,3.759-4.785,3.759s-4.785-1.683-4.785-3.759,2.141-3.759,4.785-3.759,4.785,1.683,4.785,3.759" transform="translate(18.783 28.837)" fill="#fff" stroke="rgba(0,0,0,0)" stroke-width="1"/>
    <ellipse id="Ellipse_9" data-name="Ellipse 9" cx="4.785" cy="3.759" rx="4.785" ry="3.759" transform="translate(32.064 49.226)" stroke="rgba(0,0,0,0)" stroke-miterlimit="10" stroke-width="1"/>
    <line id="Line_26" data-name="Line 26" y2="145.003" transform="translate(32.063 52.985)" fill="#fff" stroke="rgba(0,0,0,0)" stroke-width="1"/>
    <line id="Line_27" data-name="Line 27" y2="145.003" transform="translate(32.063 52.985)" fill="none" stroke="rgba(0,0,0,0)" stroke-miterlimit="10" stroke-width="1"/>
    <line id="Line_28" data-name="Line 28" y2="145.003" transform="translate(41.634 52.985)" fill="#fff" stroke="rgba(0,0,0,0)" stroke-width="1"/>
    <line id="Line_29" data-name="Line 29" y2="145.003" transform="translate(41.634 52.985)" fill="none" stroke="rgba(0,0,0,0)" stroke-miterlimit="10" stroke-width="1"/>
    <path id="Path_342" data-name="Path 342" d="M96.075,84.826a4.785,4.785,0,1,1-4.785-4.812,4.8,4.8,0,0,1,4.785,4.812" transform="translate(122.341 113.161)" stroke="rgba(0,0,0,0)" stroke-width="1"/>
    <ellipse id="Ellipse_10" data-name="Ellipse 10" cx="4.785" cy="4.812" rx="4.785" ry="4.812" transform="translate(208.847 193.176)" fill="none" stroke="rgba(0,0,0,0)" stroke-miterlimit="10" stroke-width="1"/>
    <path id="Path_343" data-name="Path 343" d="M96.075,24.149c0,2.076-2.141,3.759-4.785,3.759s-4.785-1.683-4.785-3.759,2.141-3.759,4.785-3.759,4.785,1.683,4.785,3.759" transform="translate(122.341 28.837)" stroke="rgba(0,0,0,0)" stroke-width="1"/>
    <ellipse id="Ellipse_11" data-name="Ellipse 11" cx="4.785" cy="3.759" rx="4.785" ry="3.759" transform="translate(208.847 49.226)" fill="none" stroke="rgba(0,0,0,0)" stroke-miterlimit="10" stroke-width="1"/>
    <line id="Line_30" data-name="Line 30" y2="145.003" transform="translate(208.847 52.985)" fill="#fff" stroke="rgba(0,0,0,0)" stroke-width="1"/>
    <line id="Line_31" data-name="Line 31" y2="145.003" transform="translate(208.847 52.985)" fill="none" stroke="rgba(0,0,0,0)" stroke-miterlimit="10" stroke-width="1"/>
    <line id="Line_32" data-name="Line 32" y2="145.003" transform="translate(218.417 52.985)" fill="#fff" stroke="rgba(0,0,0,0)" stroke-width="1"/>
    <line id="Line_33" data-name="Line 33" y2="145.003" transform="translate(218.417 52.985)" fill="none" stroke="rgba(0,0,0,0)" stroke-miterlimit="10" stroke-width="1"/>
    <rect id="Rectangle_158" data-name="Rectangle 158" width="167.212" height="23.928" transform="translate(41.634 95.851)" stroke="rgba(0,0,0,0)" stroke-width="1"/>
    <rect id="Rectangle_159" data-name="Rectangle 159" width="167.212" height="23.928" transform="translate(41.634 95.851)" fill="none" stroke="rgba(0,0,0,0)" stroke-miterlimit="10" stroke-width="1"/>
    <path id="Path_344" data-name="Path 344" d="M17.245,34.766c3.044-1.27,18.983-7.554,36.214,0A45.487,45.487,0,0,1,73.285,51.856" transform="translate(24.389 43.995)" fill="#fff" stroke="rgba(0,0,0,0)" stroke-width="1"/>
    <path id="Path_345" data-name="Path 345" d="M17.245,34.766c3.044-1.27,18.983-7.554,36.214,0A45.487,45.487,0,0,1,73.285,51.856" transform="translate(24.389 43.995)" stroke="rgba(0,0,0,0)" stroke-miterlimit="10" stroke-width="1"/>
    <path id="Path_346" data-name="Path 346" d="M59.756,106.4c2.38-5.451,6-7.436,11.514-12.233C81.8,85.009,80.908,81.532,89.98,72.223c13.476-13.831,31.233-22.361,33.462-19.79,1.181,1.364-2.912,4.8-6.837,13.312-6.881,14.932-1.7,20.422-7.2,34.181-1.606,4.02-7.139,17.875-19.787,23.387-9.505,4.143-14.338-.21-21.948,4.679C57.1,134.786,56.057,149.861,55.08,149.581c-.843-.241,3.257-10.447,3.6-24.826.224-9.541-1.4-12.67,1.079-18.351" transform="translate(77.736 73.51)" stroke="rgba(0,0,0,0)" stroke-width="1"/>
    <path id="Path_347" data-name="Path 347" d="M70.488,80.11c-4.247,6.622-5.56,10.932-5.756,15.111-.239,5.065,1.062,12.028,3.957,12.593,2.822.553,6.127-5.179,7.916-8.274,4.541-7.873,4.044-12.327,7.554-23.387,3.464-10.917,6.514-14.65,5.4-15.473-1.922-1.415-12.221,8.749-19.07,19.43" transform="translate(91.51 85.63)" fill="#fff" stroke="rgba(0,0,0,0)" stroke-width="1"/>
    <path id="Path_348" data-name="Path 348" d="M67.625,68.125c-2.352,8.643,3.407,17.617,5.13,17.19,2.506-.618.529-22.064-2.308-22.32-1.364-.123-2.7,4.667-2.822,5.13" transform="translate(94.853 89.088)" stroke="rgba(0,0,0,0)" stroke-width="1"/>
    <path id="Path_349" data-name="Path 349" d="M85.773,106.243c-2.38-5.449-6-7.433-11.514-12.231C63.728,84.85,64.622,81.373,55.549,72.064,42.072,58.233,24.315,49.7,22.087,52.274,20.906,53.636,25,57.069,28.924,65.586c6.881,14.932,1.7,20.42,7.2,34.181,1.605,4.02,7.139,17.875,19.787,23.387,9.5,4.143,14.338-.213,21.948,4.679,10.574,6.794,11.615,21.866,12.593,21.588.843-.241-3.257-10.449-3.6-24.828-.225-9.541,1.4-12.668-1.079-18.351" transform="translate(30.945 73.285)" stroke="rgba(0,0,0,0)" stroke-width="1"/>
    <path id="Path_350" data-name="Path 350" d="M49.5,79.951c4.247,6.622,5.56,10.932,5.756,15.111.239,5.065-1.062,12.028-3.957,12.593-2.822.553-6.127-5.179-7.916-8.274-4.541-7.873-4.044-12.327-7.554-23.387-3.464-10.917-6.514-14.65-5.4-15.473,1.922-1.415,12.221,8.749,19.07,19.43" transform="translate(42.71 85.405)" fill="#fff" stroke="rgba(0,0,0,0)" stroke-width="1"/>
    <path id="Path_351" data-name="Path 351" d="M41.673,67.966c2.352,8.643-3.407,17.617-5.13,17.19-2.506-.618-.529-22.064,2.308-22.32,1.364-.123,2.7,4.667,2.822,5.13" transform="translate(50.059 88.863)" stroke="rgba(0,0,0,0)" stroke-width="1"/>
  </g>
</svg>
