<svg id="sci-fi-logo" xmlns="http://www.w3.org/2000/svg" xmlns:xlink="http://www.w3.org/1999/xlink" width="257.143" height="247.355" viewBox="0 0 257.143 247.355">
  <defs>
    <clipPath id="clip-path">
      <rect id="Rectangle_114" data-name="Rectangle 114" width="257.143" height="247.355" fill="none"/>
    </clipPath>
  </defs>
  <g id="Group_137" data-name="Group 137" clip-path="url(#clip-path)">
    <path id="Path_92" data-name="Path 92" d="M247.551,121.446A120.974,120.974,0,1,1,126.578.472,120.973,120.973,0,0,1,247.551,121.446" transform="translate(7.465 0.629)" fill="#1a1818"/>
    <path id="Path_93" data-name="Path 93" d="M164.385,55.919C160.474,35.1,121.056,25.036,76.344,33.436S-1.445,65.522,2.465,86.338s43.329,30.885,88.041,22.485,77.789-32.086,73.878-52.9" transform="translate(2.866 40.589)" fill="#fff"/>
    <path id="Path_94" data-name="Path 94" d="M164.385,55.919C160.474,35.1,121.056,25.036,76.344,33.436S-1.445,65.522,2.465,86.338s43.329,30.885,88.041,22.485S168.3,76.737,164.385,55.919Z" transform="translate(2.866 40.589)" fill="none" stroke="#1a1818" stroke-miterlimit="10" stroke-width="1"/>
    <path id="Path_95" data-name="Path 95" d="M3.1,154.429l233.2-111.457,14.575,8.573L61.4,188.724Z" transform="translate(4.134 57.24)" fill="#fff"/>
    <path id="Path_96" data-name="Path 96" d="M3.1,154.429l233.2-111.457,14.575,8.573L61.4,188.724Z" transform="translate(4.134 57.24)" fill="none" stroke="#1a1818" stroke-miterlimit="10" stroke-width="1"/>
    <path id="Path_97" data-name="Path 97" d="M19.406,102.05q14.576-7.286,29.15-14.575" transform="translate(25.849 116.519)" fill="#fff"/>
    <path id="Path_98" data-name="Path 98" d="M19.406,102.05q14.576-7.286,29.15-14.575" transform="translate(25.849 116.519)" fill="none" stroke="#1a1818" stroke-miterlimit="10" stroke-width="1"/>
    <line id="Line_18" data-name="Line 18" y1="14.575" x2="29.15" transform="translate(131.127 153.73)" fill="#fff"/>
    <line id="Line_19" data-name="Line 19" y1="14.575" x2="29.15" transform="translate(131.127 153.73)" fill="none" stroke="#1a1818" stroke-miterlimit="10" stroke-width="1"/>
    <line id="Line_20" data-name="Line 20" y1="14.575" x2="29.15" transform="translate(173.109 130.683)" fill="#fff"/>
    <line id="Line_21" data-name="Line 21" y1="14.575" x2="29.15" transform="translate(173.109 130.683)" fill="none" stroke="#1a1818" stroke-miterlimit="10" stroke-width="1"/>
    <line id="Line_22" data-name="Line 22" y1="14.575" x2="29.15" transform="translate(211.072 108.957)" fill="#fff"/>
    <line id="Line_23" data-name="Line 23" y1="14.575" x2="29.15" transform="translate(211.072 108.957)" fill="none" stroke="#1a1818" stroke-miterlimit="10" stroke-width="1"/>
    <line id="Line_24" data-name="Line 24" y1="14.575" x2="29.15" transform="translate(89.34 177.236)" fill="#fff"/>
    <line id="Line_25" data-name="Line 25" y1="14.575" x2="29.15" transform="translate(89.34 177.236)" fill="none" stroke="#1a1818" stroke-miterlimit="10" stroke-width="1"/>
    <path id="Path_99" data-name="Path 99" d="M138.171,51.659c-3.256-17.332-36.074-25.713-73.3-18.719S.109,59.653,3.364,76.984,39.438,102.7,76.664,95.7s64.763-26.713,61.507-44.045" transform="translate(4.133 40.589)" fill="#fff"/>
    <path id="Path_100" data-name="Path 100" d="M138.171,51.659c-3.256-17.332-36.074-25.713-73.3-18.719S.109,59.653,3.364,76.984,39.438,102.7,76.664,95.7,141.427,68.99,138.171,51.659Z" transform="translate(4.133 40.589)" fill="none" stroke="#1a1818" stroke-miterlimit="10" stroke-width="1"/>
    <path id="Path_101" data-name="Path 101" d="M107.2,35.1c2.619,6.977-17.059,20.816-43.952,30.9S12.433,78.615,9.815,71.635s17.059-20.813,43.952-30.9S104.579,28.122,107.2,35.1" transform="translate(12.762 41.498)" fill="#1a1818"/>
    <path id="Path_102" data-name="Path 102" d="M107.2,35.1c2.619,6.977-17.059,20.816-43.952,30.9S12.433,78.615,9.815,71.635s17.059-20.813,43.952-30.9S104.579,28.122,107.2,35.1Z" transform="translate(12.762 41.498)" fill="none" stroke="#1a1818" stroke-miterlimit="10" stroke-width="1"/>
    <path id="Path_103" data-name="Path 103" d="M24.739,56.643v6.952H29.6V52.972Z" transform="translate(32.953 70.56)" fill="#1a1818"/>
    <path id="Path_104" data-name="Path 104" d="M24.739,56.643v6.952H29.6V52.972Z" transform="translate(32.953 70.56)" fill="none" stroke="#1a1818" stroke-miterlimit="10" stroke-width="1"/>
    <path id="Path_105" data-name="Path 105" d="M29.962,54.865v9.449h6.614V49.877Z" transform="translate(39.91 66.437)" fill="#1a1818"/>
    <path id="Path_106" data-name="Path 106" d="M29.962,54.865v9.449h6.614V49.877Z" transform="translate(39.91 66.437)" fill="none" stroke="#1a1818" stroke-miterlimit="10" stroke-width="1"/>
    <path id="Path_107" data-name="Path 107" d="M35.935,52.361V64.082h8.2V46.172Z" transform="translate(47.866 61.502)" fill="#1a1818"/>
    <path id="Path_108" data-name="Path 108" d="M35.935,52.361V64.082h8.2V46.172Z" transform="translate(47.866 61.502)" fill="none" stroke="#1a1818" stroke-miterlimit="10" stroke-width="1"/>
    <path id="Path_109" data-name="Path 109" d="M42.232,49.832V65.347h10.86V41.639Z" transform="translate(56.254 55.464)" fill="#1a1818"/>
    <path id="Path_110" data-name="Path 110" d="M42.232,49.832V65.347h10.86V41.639Z" transform="translate(56.254 55.464)" fill="none" stroke="#1a1818" stroke-miterlimit="10" stroke-width="1"/>
    <path id="Path_111" data-name="Path 111" d="M140.282,5.507C135.355-2.627,117.2-.64,99.733,9.94S72.1,35.693,77.024,43.827s23.08,6.147,40.549-4.433S145.21,13.641,140.282,5.507" transform="translate(100.942 0.666)" fill="#fff"/>
    <path id="Path_112" data-name="Path 112" d="M140.282,5.507C135.355-2.627,117.2-.64,99.733,9.94S72.1,35.693,77.024,43.827s23.08,6.147,40.549-4.433S145.21,13.641,140.282,5.507Z" transform="translate(100.942 0.666)" fill="none" stroke="#1a1818" stroke-miterlimit="10" stroke-width="1"/>
    <path id="Path_113" data-name="Path 113" d="M129.329,5.947c-4.1-6.772-19.216-5.119-33.761,3.692S72.561,31.079,76.663,37.849s19.216,5.119,33.761-3.692,23.008-21.438,18.906-28.21" transform="translate(100.739 2.369)" fill="#fff"/>
    <path id="Path_114" data-name="Path 114" d="M129.329,5.947c-4.1-6.772-19.216-5.119-33.761,3.692S72.561,31.079,76.663,37.849s19.216,5.119,33.761-3.692S133.431,12.719,129.329,5.947Z" transform="translate(100.739 2.369)" fill="none" stroke="#1a1818" stroke-miterlimit="10" stroke-width="1"/>
    <path id="Path_115" data-name="Path 115" d="M114.469,2.772c2.222,2.544-3.925,11.546-13.726,20.107S81.191,36.316,78.97,33.772,82.9,22.228,92.7,13.667,112.246.228,114.469,2.772" transform="translate(104.585 2.794)" fill="#1a1818"/>
    <path id="Path_116" data-name="Path 116" d="M114.469,2.772c2.222,2.544-3.925,11.546-13.726,20.107S81.191,36.316,78.97,33.772,82.9,22.228,92.7,13.667,112.246.228,114.469,2.772Z" transform="translate(104.585 2.794)" fill="none" stroke="#1a1818" stroke-miterlimit="10" stroke-width="1"/>
    <path id="Path_117" data-name="Path 117" d="M86.014,16.872l.525,1.4.979-.368-.8-2.136Z" transform="translate(114.573 21.001)" fill="#1a1818"/>
    <path id="Path_118" data-name="Path 118" d="M86.014,16.872l.525,1.4.979-.368-.8-2.136Z" transform="translate(114.573 21.001)" fill="none" stroke="#1a1818" stroke-miterlimit="10" stroke-width="1"/>
    <path id="Path_119" data-name="Path 119" d="M87.745,15.468l1.07,2.852,2-.749-1.635-4.359Z" transform="translate(116.879 17.6)" fill="#1a1818"/>
    <path id="Path_120" data-name="Path 120" d="M87.745,15.468l1.07,2.852,2-.749-1.635-4.359Z" transform="translate(116.879 17.6)" fill="none" stroke="#1a1818" stroke-miterlimit="10" stroke-width="1"/>
    <path id="Path_121" data-name="Path 121" d="M89.721,13.622l1.5,4.006,2.805-1.052-2.3-6.124Z" transform="translate(119.51 13.923)" fill="#1a1818"/>
    <path id="Path_122" data-name="Path 122" d="M89.721,13.622l1.5,4.006,2.805-1.052-2.3-6.124Z" transform="translate(119.51 13.923)" fill="none" stroke="#1a1818" stroke-miterlimit="10" stroke-width="1"/>
    <path id="Path_123" data-name="Path 123" d="M91.861,11.795l1.931,5.149L97.4,15.591,94.445,7.723Z" transform="translate(122.361 10.287)" fill="#1a1818"/>
    <path id="Path_124" data-name="Path 124" d="M91.861,11.795l1.931,5.149L97.4,15.591,94.445,7.723Z" transform="translate(122.361 10.287)" fill="none" stroke="#1a1818" stroke-miterlimit="10" stroke-width="1"/>
    <path id="Path_125" data-name="Path 125" d="M80.456,24.6a3.366,3.366,0,1,1-3.367-3.367A3.367,3.367,0,0,1,80.456,24.6" transform="translate(98.201 28.288)" fill="#fff"/>
    <path id="Path_126" data-name="Path 126" d="M80.456,24.6a3.366,3.366,0,1,1-3.367-3.367A3.367,3.367,0,0,1,80.456,24.6Z" transform="translate(98.201 28.288)" fill="none" stroke="#1a1818" stroke-miterlimit="10" stroke-width="1"/>
    <path id="Path_127" data-name="Path 127" d="M79.012,30.86a3.366,3.366,0,1,1-3.367-3.367,3.367,3.367,0,0,1,3.367,3.367" transform="translate(96.277 36.621)" fill="#fff"/>
    <path id="Path_128" data-name="Path 128" d="M79.012,30.86a3.366,3.366,0,1,1-3.367-3.367A3.367,3.367,0,0,1,79.012,30.86Z" transform="translate(96.277 36.621)" fill="none" stroke="#1a1818" stroke-miterlimit="10" stroke-width="1"/>
    <path id="Path_129" data-name="Path 129" d="M7.233,67.844a3.366,3.366,0,1,1-3.367-3.367,3.367,3.367,0,0,1,3.367,3.367" transform="translate(0.666 85.885)" fill="#fff"/>
    <path id="Path_130" data-name="Path 130" d="M7.233,67.844a3.366,3.366,0,1,1-3.367-3.367A3.367,3.367,0,0,1,7.233,67.844Z" transform="translate(0.666 85.885)" fill="none" stroke="#1a1818" stroke-miterlimit="10" stroke-width="1"/>
  </g>
</svg>
