<svg xmlns="http://www.w3.org/2000/svg" width="32" height="33" viewBox="0 0 32 33">
  <g id="Group_7" data-name="Group 7" transform="translate(0)">
    <g id="Group_5" data-name="Group 5" transform="translate(0 0)">
      <rect id="Rectangle_56" data-name="Rectangle 56" width="32" height="33" rx="11" transform="translate(0 0)" fill="#fff"/>
    </g>
    <g id="Group_6" data-name="Group 6" transform="translate(4.292 4.557)">
      <path id="Icon_awesome-snapchat-square" data-name="Icon awesome-snapchat-square" d="M21.566,2.25H2.588A2.589,2.589,0,0,0,0,4.838V23.816A2.589,2.589,0,0,0,2.588,26.4H21.566a2.589,2.589,0,0,0,2.588-2.588V4.838A2.589,2.589,0,0,0,21.566,2.25Zm-.35,16.978c-.189.437-.976.755-2.415.981a6.624,6.624,0,0,0-.232.857.415.415,0,0,1-.437.318h-.011c-.334,0-.69-.156-1.391-.156a2.834,2.834,0,0,0-2.016.739,4.023,4.023,0,0,1-2.653.981,4.113,4.113,0,0,1-2.615-.981,2.843,2.843,0,0,0-2.016-.739,13.744,13.744,0,0,0-1.391.167.428.428,0,0,1-.448-.323,6.769,6.769,0,0,0-.232-.863c-.744-.113-2.415-.4-2.453-1.154a.381.381,0,0,1,.318-.4A5.4,5.4,0,0,0,6.89,15.578c0-.005.005-.011.011-.016a.806.806,0,0,0,.086-.674c-.183-.426-.965-.577-1.294-.712-.852-.334-.97-.722-.917-.987a.922.922,0,0,1,1.181-.555,2.031,2.031,0,0,0,.846.226.756.756,0,0,0,.356-.075c-.075-1.289-.253-3.127.2-4.157A4.9,4.9,0,0,1,11.9,5.7l.361-.005a4.853,4.853,0,0,1,4.545,2.928c.458,1.03.28,2.863.2,4.157a.678.678,0,0,0,.307.075,2.127,2.127,0,0,0,.793-.226.985.985,0,0,1,.733,0,.75.75,0,0,1,.561.642c.005.35-.307.652-.927.9-.075.032-.167.059-.264.092-.35.113-.884.28-1.024.62a.827.827,0,0,0,.086.674c.005.005.005.011.011.016a5.4,5.4,0,0,0,3.666,3.079A.414.414,0,0,1,21.216,19.228Z" transform="translate(0 -2.25)"/>
    </g>
  </g>
</svg>
