<?xml version="1.0" encoding="UTF-8"?>
<svg id="Layer_1" data-name="Layer 1" xmlns="http://www.w3.org/2000/svg" viewBox="0 0 288.31 178.71">
  <defs>
    <style>
      .cls-1 {
        fill: #000;
      }

      .cls-1, .cls-2 {
        stroke-width: 0px;
      }

      .cls-3 {
        fill: #fff;
        stroke: #000;
      }

      .cls-3, .cls-4 {
        stroke-miterlimit: 10;
      }

      .cls-4 {
        stroke: #ef250a;
      }

      .cls-4, .cls-2 {
        fill: #ef250a;
      }
    </style>
  </defs>
  <g id="Layer_1-2" data-name="Layer 1-2">
    <path id="Path_150" data-name="Path 150" class="cls-1" d="M0,47.9s17.86,3.2,22.91,8.13c0,0,5.91,3.2,6.53,11.95l1.6,54.93c-.06,2.24-.52,4.45-1.35,6.53,0,0-1.48,3.7-3.45,5.3l28.7-.12s-1.03-.29-3.08-3.7-1.23-7.27-1.23-13.92l-.12-16.75,14.04-12.93s-5.79,36.21,13.54,83.13c0,0-5.42-61.7,7.51-80.54,0,0-13.06-7.14-14.17-10.22,0,0,17.74-24.88,20.07-55.79,0,0-5.79,26.97-23.89,40.15l-.49,8.5-16.75,17.98v-29.43s.24-12.07-14.65-12.19l-35.72-.99Z"/>
    <path id="Path_151" data-name="Path 151" class="cls-1" d="M120.75,96.62s1.67-24.91,2.13-28.44,13.44-21.46,13.13-31.15c0,0-3.74,15.5-12.82,18.3,0,0-18.68,3.13-24.81,10.28,0,0,5.32-12.68,6.47-17.26s-.96,6.06-10.43,17.97c0,0-4.33,5.97-2.98,18.46,0,0,1.38-7.13,4.68-10.89s10.32-9.03,15.83-9.57l-1.15,13.17s-34.98,14.03-28.43,61.19c0,0,3.31-32.77,29.11-30.69,3.42.7,6.39,2.81,8.18,5.81,0,0,11.78-8.87,12.03-44.8,0,0-2.06,25.25-10.94,27.62h0ZM109.3,99.3s-12.25.45-19.48,11.29c0,0,6.27-18.56,20.32-23.84-.21,4-.84,12.55-.84,12.55Z"/>
    <path id="Path_152" data-name="Path 152" class="cls-1" d="M124.47,18.25c0-.92,21.61-40.6,47.69,0,0,0-11.51-3.67-17.77,39.13l19.31,6.25s-20.46-.18-21.23,1.1c-2.94,22.6-4.86,38.39-4.86,87.8,0,0-2.17-86.15-5.37-87.99-2.04-.55-21.48,0-21.48,0l20.46-6.43s-3.71-38.94-16.74-39.85h0Z"/>
    <path id="Path_154" data-name="Path 154" class="cls-1" d="M239.2,103.82s-3.62-18.59-21.75-14.5c-8.5,2.11-25.88,12.27-36.14,7.44,0,0,4.25-3.97,12-4.46,0,0-4.75-2.35-12.75,1.24-1.87,0-7.5-.25-6.12-6.94,0,0,9.13-9.54,27.63-6.32,0,0,5.62,1.98-1.12,6.45-.75.99,3.87-1.36,4.25-3.1s-.25-8.06,2.5-11.65,7.38-5.33,8.5-6.2,1.38-2.6,1.62-5.08c0,0-2.75,7.44-6.12,5.2s-8.25-10.16-9.13-12.15c0,0-11.88,2.36-17.5,0,0,0-9.75,5.2-11.63,6.69s-8.75,17.98-11.75,20.21c0,0-2.38,1.86-7,1.49,0,0,7.13,3.23,6.88,8.31,0,0-.38,8.92,4.75,12.15,0,0,8.75,6.82,31.26,2.35,0,0,15.76-5.45,23.26-3.84,6.63,1.36,19.5,30.74-12.38,34.71-20.88.25-37.51.74-51.39-.87,0,0-22.13-2.73-36.26,4.59-1.87,1.74-13.76,6.7-14.88,28.64,0,0-.37,4.55-.75,10.56.97-11.16,3.04-23.13,7.38-29.4,0,0,5.25-12.77,25.63-13.02,12.76-.75,25.56,0,38.14,2.23,0,0,34.26,4.21,40.14,2.48s23.26-2.85,22.76-37.19h-.02ZM196.69,67.86l-21.5,4.96c9-13.51,15.63-9.54,21.5-4.96Z"/>
  </g>
  <g>
    <path class="cls-3" d="M235.39,38.55S259.28-1.26,267.91,6.04c8.63,7.3-32.52,32.52-32.52,32.52Z"/>
    <path class="cls-3" d="M231.53,38.55S207.64-1.26,199.01,6.04s32.52,32.52,32.52,32.52Z"/>
    <path class="cls-3" d="M235.39,39.9s44.39-18.58,51.79-6.64c7.4,11.95-51.79,6.64-51.79,6.64Z"/>
    <path class="cls-3" d="M231.53,39.9s-44.39-18.58-51.79-6.64c-7.4,11.95,51.79,6.64,51.79,6.64Z"/>
    <path class="cls-2" d="M249.18,16.05c-16.65-6.68-14.91,30.57-14.91,30.57-.02.02-.02.03-.04.04,0,0,0,0,0,0,1.06-1.27,4.35-5.26,5.69-6.93,5.87-7.33,13.91-21.82,9.25-23.69Z"/>
    <path class="cls-4" d="M233.82,45.52s1.74-36.62-11.81-32.14c-13.55,4.48,11.81,32.14,11.81,32.14Z"/>
  </g>
</svg>